<svg xmlns="http://www.w3.org/2000/svg" viewBox="0 0 512 512" width="512" height="512">
  <defs>
    <linearGradient id="grad" x1="0%" y1="0%" x2="100%" y2="100%">
      <stop offset="0%" stop-color="#A78BFA"/>
      <stop offset="100%" stop-color="#7C3AED"/>
    </linearGradient>
  </defs>
  <rect width="512" height="512" fill="#0d0d1a"/>
  <circle cx="256" cy="256" r="200" fill="url(#grad)" opacity="0.2"/>
  <path fill="url(#grad)" d="M256 100c-64 0-120 52-120 116s56 116 120 116 120-52 120-116-56-116-120-116zm0 48a36 36 0 110 72 36 36 0 010-72zm0 168c-30 0-56-16-72-38 1-24 48-37 72-37s71 13 72 37c-16 22-42 38-72 38z"/>
</svg>
